<mxfile host="app.diagrams.net" modified="2023-09-19T00:21:35.620Z" agent="Mozilla/5.0 (Windows NT 10.0; Win64; x64) AppleWebKit/537.36 (KHTML, like Gecko) Chrome/117.0.0.0 Safari/537.36" etag="r5_y5rcVQddA2sSEh7wH" version="21.7.5" type="device" pages="3">
  <diagram id="C5RBs43oDa-KdzZeNtuy" name="Page-1">
    <mxGraphModel dx="1050" dy="566" grid="1" gridSize="10" guides="1" tooltips="1" connect="1" arrows="1" fold="1" page="1" pageScale="1" pageWidth="827" pageHeight="1169" math="0" shadow="0">
      <root>
        <mxCell id="WIyWlLk6GJQsqaUBKTNV-0" />
        <mxCell id="WIyWlLk6GJQsqaUBKTNV-1" parent="WIyWlLk6GJQsqaUBKTNV-0" />
        <mxCell id="ptXZij7LrUdz7pSKuq70-5" style="edgeStyle=orthogonalEdgeStyle;rounded=0;orthogonalLoop=1;jettySize=auto;html=1;" edge="1" parent="WIyWlLk6GJQsqaUBKTNV-1" source="WIyWlLk6GJQsqaUBKTNV-3" target="WIyWlLk6GJQsqaUBKTNV-7">
          <mxGeometry relative="1" as="geometry" />
        </mxCell>
        <mxCell id="ptXZij7LrUdz7pSKuq70-32" value="" style="edgeStyle=orthogonalEdgeStyle;rounded=0;orthogonalLoop=1;jettySize=auto;html=1;" edge="1" parent="WIyWlLk6GJQsqaUBKTNV-1" source="WIyWlLk6GJQsqaUBKTNV-3" target="ptXZij7LrUdz7pSKuq70-31">
          <mxGeometry relative="1" as="geometry" />
        </mxCell>
        <mxCell id="WIyWlLk6GJQsqaUBKTNV-3" value="start" style="rounded=1;whiteSpace=wrap;html=1;fontSize=12;glass=0;strokeWidth=1;shadow=0;" parent="WIyWlLk6GJQsqaUBKTNV-1" vertex="1">
          <mxGeometry x="400" y="50" width="120" height="40" as="geometry" />
        </mxCell>
        <mxCell id="ptXZij7LrUdz7pSKuq70-24" value="" style="edgeStyle=orthogonalEdgeStyle;rounded=0;orthogonalLoop=1;jettySize=auto;html=1;" edge="1" parent="WIyWlLk6GJQsqaUBKTNV-1" source="WIyWlLk6GJQsqaUBKTNV-6" target="ptXZij7LrUdz7pSKuq70-23">
          <mxGeometry relative="1" as="geometry" />
        </mxCell>
        <mxCell id="ptXZij7LrUdz7pSKuq70-37" value="" style="edgeStyle=orthogonalEdgeStyle;rounded=0;orthogonalLoop=1;jettySize=auto;html=1;" edge="1" parent="WIyWlLk6GJQsqaUBKTNV-1" source="WIyWlLk6GJQsqaUBKTNV-6" target="ptXZij7LrUdz7pSKuq70-36">
          <mxGeometry relative="1" as="geometry" />
        </mxCell>
        <mxCell id="WIyWlLk6GJQsqaUBKTNV-6" value="apakah anda pasien lama" style="rhombus;whiteSpace=wrap;html=1;shadow=0;fontFamily=Helvetica;fontSize=12;align=center;strokeWidth=1;spacing=6;spacingTop=-4;" parent="WIyWlLk6GJQsqaUBKTNV-1" vertex="1">
          <mxGeometry x="280" y="165" width="110" height="80" as="geometry" />
        </mxCell>
        <mxCell id="ptXZij7LrUdz7pSKuq70-12" value="" style="edgeStyle=orthogonalEdgeStyle;rounded=0;orthogonalLoop=1;jettySize=auto;html=1;" edge="1" parent="WIyWlLk6GJQsqaUBKTNV-1" source="WIyWlLk6GJQsqaUBKTNV-7" target="ptXZij7LrUdz7pSKuq70-11">
          <mxGeometry relative="1" as="geometry" />
        </mxCell>
        <mxCell id="WIyWlLk6GJQsqaUBKTNV-7" value="beli obat" style="rounded=1;whiteSpace=wrap;html=1;fontSize=12;glass=0;strokeWidth=1;shadow=0;" parent="WIyWlLk6GJQsqaUBKTNV-1" vertex="1">
          <mxGeometry x="550" y="160" width="120" height="40" as="geometry" />
        </mxCell>
        <mxCell id="ptXZij7LrUdz7pSKuq70-1" style="edgeStyle=orthogonalEdgeStyle;rounded=0;orthogonalLoop=1;jettySize=auto;html=1;exitX=0.5;exitY=1;exitDx=0;exitDy=0;" edge="1" parent="WIyWlLk6GJQsqaUBKTNV-1" source="WIyWlLk6GJQsqaUBKTNV-7" target="WIyWlLk6GJQsqaUBKTNV-7">
          <mxGeometry relative="1" as="geometry" />
        </mxCell>
        <mxCell id="ptXZij7LrUdz7pSKuq70-7" value="no" style="text;html=1;strokeColor=none;fillColor=none;align=center;verticalAlign=middle;whiteSpace=wrap;rounded=0;" vertex="1" parent="WIyWlLk6GJQsqaUBKTNV-1">
          <mxGeometry x="290" y="250" width="60" height="30" as="geometry" />
        </mxCell>
        <mxCell id="ptXZij7LrUdz7pSKuq70-11" value="" style="shape=trapezoid;perimeter=trapezoidPerimeter;whiteSpace=wrap;html=1;fixedSize=1;rounded=1;glass=0;strokeWidth=1;shadow=0;" vertex="1" parent="WIyWlLk6GJQsqaUBKTNV-1">
          <mxGeometry x="550" y="270" width="120" height="60" as="geometry" />
        </mxCell>
        <mxCell id="ptXZij7LrUdz7pSKuq70-15" value="" style="edgeStyle=orthogonalEdgeStyle;rounded=0;orthogonalLoop=1;jettySize=auto;html=1;" edge="1" parent="WIyWlLk6GJQsqaUBKTNV-1" source="ptXZij7LrUdz7pSKuq70-13" target="ptXZij7LrUdz7pSKuq70-14">
          <mxGeometry relative="1" as="geometry" />
        </mxCell>
        <mxCell id="ptXZij7LrUdz7pSKuq70-13" value="masukan nama obat" style="text;html=1;strokeColor=none;fillColor=none;align=center;verticalAlign=middle;whiteSpace=wrap;rounded=0;" vertex="1" parent="WIyWlLk6GJQsqaUBKTNV-1">
          <mxGeometry x="580" y="285" width="60" height="30" as="geometry" />
        </mxCell>
        <mxCell id="ptXZij7LrUdz7pSKuq70-18" value="" style="edgeStyle=orthogonalEdgeStyle;rounded=0;orthogonalLoop=1;jettySize=auto;html=1;" edge="1" parent="WIyWlLk6GJQsqaUBKTNV-1" source="ptXZij7LrUdz7pSKuq70-14" target="ptXZij7LrUdz7pSKuq70-17">
          <mxGeometry relative="1" as="geometry" />
        </mxCell>
        <mxCell id="ptXZij7LrUdz7pSKuq70-14" value="" style="whiteSpace=wrap;html=1;" vertex="1" parent="WIyWlLk6GJQsqaUBKTNV-1">
          <mxGeometry x="550" y="380" width="120" height="60" as="geometry" />
        </mxCell>
        <mxCell id="ptXZij7LrUdz7pSKuq70-16" value="masukan jumlah obat yang di beli" style="text;html=1;strokeColor=none;fillColor=none;align=center;verticalAlign=middle;whiteSpace=wrap;rounded=0;" vertex="1" parent="WIyWlLk6GJQsqaUBKTNV-1">
          <mxGeometry x="560" y="390" width="100" height="40" as="geometry" />
        </mxCell>
        <mxCell id="ptXZij7LrUdz7pSKuq70-17" value="" style="whiteSpace=wrap;html=1;" vertex="1" parent="WIyWlLk6GJQsqaUBKTNV-1">
          <mxGeometry x="550" y="480" width="120" height="60" as="geometry" />
        </mxCell>
        <mxCell id="ptXZij7LrUdz7pSKuq70-19" value="Text" style="text;html=1;strokeColor=none;fillColor=none;align=center;verticalAlign=middle;whiteSpace=wrap;rounded=0;" vertex="1" parent="WIyWlLk6GJQsqaUBKTNV-1">
          <mxGeometry x="580" y="495" width="60" height="30" as="geometry" />
        </mxCell>
        <mxCell id="ptXZij7LrUdz7pSKuq70-40" style="edgeStyle=orthogonalEdgeStyle;rounded=0;orthogonalLoop=1;jettySize=auto;html=1;exitX=0;exitY=0.5;exitDx=0;exitDy=0;entryX=1;entryY=0.5;entryDx=0;entryDy=0;" edge="1" parent="WIyWlLk6GJQsqaUBKTNV-1" source="ptXZij7LrUdz7pSKuq70-23" target="ptXZij7LrUdz7pSKuq70-43">
          <mxGeometry relative="1" as="geometry">
            <mxPoint x="190" y="350" as="targetPoint" />
          </mxGeometry>
        </mxCell>
        <mxCell id="ptXZij7LrUdz7pSKuq70-23" value="" style="shape=parallelogram;perimeter=parallelogramPerimeter;whiteSpace=wrap;html=1;fixedSize=1;shadow=0;strokeWidth=1;spacing=6;spacingTop=-4;" vertex="1" parent="WIyWlLk6GJQsqaUBKTNV-1">
          <mxGeometry x="280" y="300" width="120" height="60" as="geometry" />
        </mxCell>
        <mxCell id="ptXZij7LrUdz7pSKuq70-25" value="masukan identias" style="text;html=1;strokeColor=none;fillColor=none;align=center;verticalAlign=middle;whiteSpace=wrap;rounded=0;" vertex="1" parent="WIyWlLk6GJQsqaUBKTNV-1">
          <mxGeometry x="310" y="315" width="60" height="30" as="geometry" />
        </mxCell>
        <mxCell id="ptXZij7LrUdz7pSKuq70-35" style="edgeStyle=orthogonalEdgeStyle;rounded=0;orthogonalLoop=1;jettySize=auto;html=1;entryX=0.5;entryY=0;entryDx=0;entryDy=0;" edge="1" parent="WIyWlLk6GJQsqaUBKTNV-1" source="ptXZij7LrUdz7pSKuq70-31" target="WIyWlLk6GJQsqaUBKTNV-6">
          <mxGeometry relative="1" as="geometry" />
        </mxCell>
        <mxCell id="ptXZij7LrUdz7pSKuq70-31" value="periksa" style="rounded=1;whiteSpace=wrap;html=1;fontSize=12;glass=0;strokeWidth=1;shadow=0;" vertex="1" parent="WIyWlLk6GJQsqaUBKTNV-1">
          <mxGeometry x="270" y="90" width="120" height="40" as="geometry" />
        </mxCell>
        <mxCell id="ptXZij7LrUdz7pSKuq70-47" style="edgeStyle=orthogonalEdgeStyle;rounded=0;orthogonalLoop=1;jettySize=auto;html=1;" edge="1" parent="WIyWlLk6GJQsqaUBKTNV-1" source="ptXZij7LrUdz7pSKuq70-36" target="ptXZij7LrUdz7pSKuq70-43">
          <mxGeometry relative="1" as="geometry" />
        </mxCell>
        <mxCell id="ptXZij7LrUdz7pSKuq70-36" value="masukan id pasien" style="shape=parallelogram;perimeter=parallelogramPerimeter;whiteSpace=wrap;html=1;fixedSize=1;" vertex="1" parent="WIyWlLk6GJQsqaUBKTNV-1">
          <mxGeometry x="50" y="170" width="130" height="70" as="geometry" />
        </mxCell>
        <mxCell id="ptXZij7LrUdz7pSKuq70-39" value="yes" style="text;html=1;strokeColor=none;fillColor=none;align=center;verticalAlign=middle;whiteSpace=wrap;rounded=0;" vertex="1" parent="WIyWlLk6GJQsqaUBKTNV-1">
          <mxGeometry x="240" y="180" width="60" height="30" as="geometry" />
        </mxCell>
        <mxCell id="ptXZij7LrUdz7pSKuq70-43" value="" style="shape=parallelogram;perimeter=parallelogramPerimeter;whiteSpace=wrap;html=1;fixedSize=1;" vertex="1" parent="WIyWlLk6GJQsqaUBKTNV-1">
          <mxGeometry x="70" y="320" width="120" height="60" as="geometry" />
        </mxCell>
        <mxCell id="ptXZij7LrUdz7pSKuq70-30" value="masukan keluhan" style="text;html=1;strokeColor=none;fillColor=none;align=center;verticalAlign=middle;whiteSpace=wrap;rounded=0;" vertex="1" parent="WIyWlLk6GJQsqaUBKTNV-1">
          <mxGeometry x="100" y="335" width="60" height="30" as="geometry" />
        </mxCell>
      </root>
    </mxGraphModel>
  </diagram>
  <diagram id="H0wij1GDjDeC9LO2AxRV" name="Page-2">
    <mxGraphModel dx="2350" dy="809" grid="1" gridSize="10" guides="1" tooltips="1" connect="1" arrows="1" fold="1" page="1" pageScale="1" pageWidth="850" pageHeight="1100" math="0" shadow="0">
      <root>
        <mxCell id="0" />
        <mxCell id="1" parent="0" />
        <mxCell id="oUCo9XGmpqHBFNCNIj1C-4" value="" style="edgeStyle=orthogonalEdgeStyle;rounded=0;orthogonalLoop=1;jettySize=auto;html=1;" edge="1" parent="1" source="oUCo9XGmpqHBFNCNIj1C-2" target="oUCo9XGmpqHBFNCNIj1C-3">
          <mxGeometry relative="1" as="geometry" />
        </mxCell>
        <mxCell id="oUCo9XGmpqHBFNCNIj1C-2" value="mulai" style="ellipse;whiteSpace=wrap;html=1;" vertex="1" parent="1">
          <mxGeometry x="-560" y="200" width="120" height="80" as="geometry" />
        </mxCell>
        <mxCell id="oUCo9XGmpqHBFNCNIj1C-7" value="" style="edgeStyle=orthogonalEdgeStyle;rounded=0;orthogonalLoop=1;jettySize=auto;html=1;" edge="1" parent="1" source="oUCo9XGmpqHBFNCNIj1C-3" target="oUCo9XGmpqHBFNCNIj1C-6">
          <mxGeometry relative="1" as="geometry" />
        </mxCell>
        <mxCell id="oUCo9XGmpqHBFNCNIj1C-3" value="int r&lt;br&gt;double phi=3,14&lt;br&gt;double keliling, luas" style="shape=hexagon;perimeter=hexagonPerimeter2;whiteSpace=wrap;html=1;fixedSize=1;" vertex="1" parent="1">
          <mxGeometry x="-410" y="210" width="240" height="60" as="geometry" />
        </mxCell>
        <mxCell id="oUCo9XGmpqHBFNCNIj1C-9" value="" style="edgeStyle=orthogonalEdgeStyle;rounded=0;orthogonalLoop=1;jettySize=auto;html=1;" edge="1" parent="1" source="oUCo9XGmpqHBFNCNIj1C-6" target="oUCo9XGmpqHBFNCNIj1C-8">
          <mxGeometry relative="1" as="geometry" />
        </mxCell>
        <mxCell id="oUCo9XGmpqHBFNCNIj1C-6" value="input r" style="shape=parallelogram;perimeter=parallelogramPerimeter;whiteSpace=wrap;html=1;fixedSize=1;" vertex="1" parent="1">
          <mxGeometry x="-150" y="210" width="120" height="60" as="geometry" />
        </mxCell>
        <mxCell id="oUCo9XGmpqHBFNCNIj1C-11" value="" style="edgeStyle=orthogonalEdgeStyle;rounded=0;orthogonalLoop=1;jettySize=auto;html=1;" edge="1" parent="1" source="oUCo9XGmpqHBFNCNIj1C-8" target="oUCo9XGmpqHBFNCNIj1C-10">
          <mxGeometry relative="1" as="geometry" />
        </mxCell>
        <mxCell id="oUCo9XGmpqHBFNCNIj1C-8" value="keliling = 2*phi*r&lt;br&gt;luas = phi*r*r" style="whiteSpace=wrap;html=1;" vertex="1" parent="1">
          <mxGeometry y="210" width="120" height="60" as="geometry" />
        </mxCell>
        <mxCell id="GwMefIM_FR4Q4pyVmXTl-1" style="edgeStyle=orthogonalEdgeStyle;rounded=0;orthogonalLoop=1;jettySize=auto;html=1;exitX=1;exitY=0.5;exitDx=0;exitDy=0;entryX=0;entryY=0.5;entryDx=0;entryDy=0;" edge="1" parent="1" source="oUCo9XGmpqHBFNCNIj1C-10" target="oUCo9XGmpqHBFNCNIj1C-17">
          <mxGeometry relative="1" as="geometry" />
        </mxCell>
        <mxCell id="oUCo9XGmpqHBFNCNIj1C-10" value="tampilkan luas dan keliling" style="shape=parallelogram;perimeter=parallelogramPerimeter;whiteSpace=wrap;html=1;fixedSize=1;" vertex="1" parent="1">
          <mxGeometry x="150" y="205" width="140" height="70" as="geometry" />
        </mxCell>
        <mxCell id="oUCo9XGmpqHBFNCNIj1C-17" value="selesai" style="ellipse;whiteSpace=wrap;html=1;" vertex="1" parent="1">
          <mxGeometry x="320" y="205" width="120" height="70" as="geometry" />
        </mxCell>
      </root>
    </mxGraphModel>
  </diagram>
  <diagram id="C2v2CnaT1las8HCIjJ78" name="Page-3">
    <mxGraphModel dx="1050" dy="566" grid="1" gridSize="10" guides="1" tooltips="1" connect="1" arrows="1" fold="1" page="1" pageScale="1" pageWidth="850" pageHeight="1100" math="0" shadow="0">
      <root>
        <mxCell id="0" />
        <mxCell id="1" parent="0" />
        <mxCell id="kjCTn79ZNEePvUXMeaOL-2" value="" style="edgeStyle=orthogonalEdgeStyle;rounded=0;orthogonalLoop=1;jettySize=auto;html=1;" edge="1" parent="1" source="C6unVMB0nWDV8HlU32Ox-1" target="kjCTn79ZNEePvUXMeaOL-1">
          <mxGeometry relative="1" as="geometry" />
        </mxCell>
        <mxCell id="C6unVMB0nWDV8HlU32Ox-1" value="start" style="ellipse;whiteSpace=wrap;html=1;" vertex="1" parent="1">
          <mxGeometry x="360" y="250" width="120" height="80" as="geometry" />
        </mxCell>
        <mxCell id="kjCTn79ZNEePvUXMeaOL-4" style="edgeStyle=orthogonalEdgeStyle;rounded=0;orthogonalLoop=1;jettySize=auto;html=1;" edge="1" parent="1" source="kjCTn79ZNEePvUXMeaOL-1">
          <mxGeometry relative="1" as="geometry">
            <mxPoint x="290" y="440" as="targetPoint" />
          </mxGeometry>
        </mxCell>
        <mxCell id="EY6yxWyg6rYYb75cYWsT-4" style="edgeStyle=orthogonalEdgeStyle;rounded=0;orthogonalLoop=1;jettySize=auto;html=1;entryX=0.5;entryY=0;entryDx=0;entryDy=0;" edge="1" parent="1" source="kjCTn79ZNEePvUXMeaOL-1" target="hR3aRdqfbElaHhcgL-Pa-2">
          <mxGeometry relative="1" as="geometry" />
        </mxCell>
        <mxCell id="kjCTn79ZNEePvUXMeaOL-1" value="periksa or beli obat" style="rhombus;whiteSpace=wrap;html=1;" vertex="1" parent="1">
          <mxGeometry x="370" y="390" width="100" height="100" as="geometry" />
        </mxCell>
        <mxCell id="WqlY6YZ6PbwaHRNXA0Yb-2" value="" style="edgeStyle=orthogonalEdgeStyle;rounded=0;orthogonalLoop=1;jettySize=auto;html=1;" edge="1" parent="1" source="hR3aRdqfbElaHhcgL-Pa-1" target="WqlY6YZ6PbwaHRNXA0Yb-1">
          <mxGeometry relative="1" as="geometry" />
        </mxCell>
        <mxCell id="hR3aRdqfbElaHhcgL-Pa-1" value="periksa" style="shape=parallelogram;perimeter=parallelogramPerimeter;whiteSpace=wrap;html=1;fixedSize=1;" vertex="1" parent="1">
          <mxGeometry x="180" y="410" width="120" height="60" as="geometry" />
        </mxCell>
        <mxCell id="EY6yxWyg6rYYb75cYWsT-7" value="" style="edgeStyle=orthogonalEdgeStyle;rounded=0;orthogonalLoop=1;jettySize=auto;html=1;" edge="1" parent="1" source="hR3aRdqfbElaHhcgL-Pa-2" target="EY6yxWyg6rYYb75cYWsT-6">
          <mxGeometry relative="1" as="geometry" />
        </mxCell>
        <mxCell id="hR3aRdqfbElaHhcgL-Pa-2" value="beli obat" style="shape=parallelogram;perimeter=parallelogramPerimeter;whiteSpace=wrap;html=1;fixedSize=1;" vertex="1" parent="1">
          <mxGeometry x="360" y="535" width="120" height="60" as="geometry" />
        </mxCell>
        <mxCell id="EccfnYSVo-V0u7K9zvJ8-2" value="" style="edgeStyle=orthogonalEdgeStyle;rounded=0;orthogonalLoop=1;jettySize=auto;html=1;" edge="1" parent="1" source="WqlY6YZ6PbwaHRNXA0Yb-1" target="EccfnYSVo-V0u7K9zvJ8-1">
          <mxGeometry relative="1" as="geometry" />
        </mxCell>
        <mxCell id="EccfnYSVo-V0u7K9zvJ8-5" value="" style="edgeStyle=orthogonalEdgeStyle;rounded=0;orthogonalLoop=1;jettySize=auto;html=1;" edge="1" parent="1" source="WqlY6YZ6PbwaHRNXA0Yb-1" target="EccfnYSVo-V0u7K9zvJ8-4">
          <mxGeometry relative="1" as="geometry" />
        </mxCell>
        <mxCell id="WqlY6YZ6PbwaHRNXA0Yb-1" value="apakah anda pasien baru" style="rhombus;whiteSpace=wrap;html=1;" vertex="1" parent="1">
          <mxGeometry x="190" y="520" width="100" height="90" as="geometry" />
        </mxCell>
        <mxCell id="EccfnYSVo-V0u7K9zvJ8-11" style="edgeStyle=orthogonalEdgeStyle;rounded=0;orthogonalLoop=1;jettySize=auto;html=1;exitX=0.397;exitY=0.983;exitDx=0;exitDy=0;exitPerimeter=0;entryX=0;entryY=0.5;entryDx=0;entryDy=0;" edge="1" parent="1" target="EccfnYSVo-V0u7K9zvJ8-9">
          <mxGeometry relative="1" as="geometry">
            <mxPoint x="122.4" y="860" as="targetPoint" />
            <mxPoint x="50.0400000000001" y="593.98" as="sourcePoint" />
            <Array as="points">
              <mxPoint x="50" y="790" />
            </Array>
          </mxGeometry>
        </mxCell>
        <mxCell id="EccfnYSVo-V0u7K9zvJ8-1" value="masukan identitas" style="shape=parallelogram;perimeter=parallelogramPerimeter;whiteSpace=wrap;html=1;fixedSize=1;" vertex="1" parent="1">
          <mxGeometry y="535" width="120" height="60" as="geometry" />
        </mxCell>
        <mxCell id="EccfnYSVo-V0u7K9zvJ8-3" value="ya" style="text;html=1;align=center;verticalAlign=middle;resizable=0;points=[];autosize=1;strokeColor=none;fillColor=none;" vertex="1" parent="1">
          <mxGeometry x="140" y="528" width="40" height="30" as="geometry" />
        </mxCell>
        <mxCell id="EccfnYSVo-V0u7K9zvJ8-8" value="" style="edgeStyle=orthogonalEdgeStyle;rounded=0;orthogonalLoop=1;jettySize=auto;html=1;" edge="1" parent="1" source="EccfnYSVo-V0u7K9zvJ8-9">
          <mxGeometry relative="1" as="geometry">
            <mxPoint x="240" y="800" as="targetPoint" />
          </mxGeometry>
        </mxCell>
        <mxCell id="EccfnYSVo-V0u7K9zvJ8-10" value="" style="edgeStyle=orthogonalEdgeStyle;rounded=0;orthogonalLoop=1;jettySize=auto;html=1;" edge="1" parent="1" source="EccfnYSVo-V0u7K9zvJ8-4" target="EccfnYSVo-V0u7K9zvJ8-9">
          <mxGeometry relative="1" as="geometry" />
        </mxCell>
        <mxCell id="EccfnYSVo-V0u7K9zvJ8-4" value="masukan id pasien" style="shape=parallelogram;perimeter=parallelogramPerimeter;whiteSpace=wrap;html=1;fixedSize=1;" vertex="1" parent="1">
          <mxGeometry x="175" y="660" width="130" height="60" as="geometry" />
        </mxCell>
        <mxCell id="EccfnYSVo-V0u7K9zvJ8-6" value="no" style="text;html=1;align=center;verticalAlign=middle;resizable=0;points=[];autosize=1;strokeColor=none;fillColor=none;" vertex="1" parent="1">
          <mxGeometry x="245" y="610" width="40" height="30" as="geometry" />
        </mxCell>
        <mxCell id="EY6yxWyg6rYYb75cYWsT-12" value="" style="edgeStyle=orthogonalEdgeStyle;rounded=0;orthogonalLoop=1;jettySize=auto;html=1;" edge="1" parent="1" source="EccfnYSVo-V0u7K9zvJ8-9" target="EY6yxWyg6rYYb75cYWsT-11">
          <mxGeometry relative="1" as="geometry" />
        </mxCell>
        <mxCell id="EY6yxWyg6rYYb75cYWsT-8" style="edgeStyle=orthogonalEdgeStyle;rounded=0;orthogonalLoop=1;jettySize=auto;html=1;entryX=0.5;entryY=0;entryDx=0;entryDy=0;" edge="1" parent="1" source="EY6yxWyg6rYYb75cYWsT-6" target="EY6yxWyg6rYYb75cYWsT-9">
          <mxGeometry relative="1" as="geometry">
            <mxPoint x="420" y="750" as="targetPoint" />
          </mxGeometry>
        </mxCell>
        <mxCell id="EY6yxWyg6rYYb75cYWsT-6" value="masukan nama obat" style="shape=parallelogram;perimeter=parallelogramPerimeter;whiteSpace=wrap;html=1;fixedSize=1;" vertex="1" parent="1">
          <mxGeometry x="350" y="640" width="140" height="60" as="geometry" />
        </mxCell>
        <mxCell id="a_ban_CbOE6N4E2XzAW7-6" style="edgeStyle=orthogonalEdgeStyle;rounded=0;orthogonalLoop=1;jettySize=auto;html=1;entryX=0.5;entryY=0;entryDx=0;entryDy=0;" edge="1" parent="1" source="EY6yxWyg6rYYb75cYWsT-9" target="a_ban_CbOE6N4E2XzAW7-5">
          <mxGeometry relative="1" as="geometry" />
        </mxCell>
        <mxCell id="EY6yxWyg6rYYb75cYWsT-9" value="masukan jumlah obat" style="shape=parallelogram;perimeter=parallelogramPerimeter;whiteSpace=wrap;html=1;fixedSize=1;" vertex="1" parent="1">
          <mxGeometry x="350" y="770" width="140" height="60" as="geometry" />
        </mxCell>
        <mxCell id="a_ban_CbOE6N4E2XzAW7-2" value="" style="edgeStyle=orthogonalEdgeStyle;rounded=0;orthogonalLoop=1;jettySize=auto;html=1;" edge="1" parent="1" source="EY6yxWyg6rYYb75cYWsT-11" target="a_ban_CbOE6N4E2XzAW7-1">
          <mxGeometry relative="1" as="geometry" />
        </mxCell>
        <mxCell id="EY6yxWyg6rYYb75cYWsT-11" value="saran obat dari dokter" style="whiteSpace=wrap;html=1;" vertex="1" parent="1">
          <mxGeometry x="180" y="850" width="120" height="60" as="geometry" />
        </mxCell>
        <mxCell id="a_ban_CbOE6N4E2XzAW7-11" style="edgeStyle=orthogonalEdgeStyle;rounded=0;orthogonalLoop=1;jettySize=auto;html=1;entryX=0.05;entryY=0.627;entryDx=0;entryDy=0;entryPerimeter=0;" edge="1" parent="1" source="a_ban_CbOE6N4E2XzAW7-1" target="a_ban_CbOE6N4E2XzAW7-5">
          <mxGeometry relative="1" as="geometry" />
        </mxCell>
        <mxCell id="a_ban_CbOE6N4E2XzAW7-1" value="nama obat dan harganya" style="whiteSpace=wrap;html=1;" vertex="1" parent="1">
          <mxGeometry x="180" y="940" width="120" height="60" as="geometry" />
        </mxCell>
        <mxCell id="a_ban_CbOE6N4E2XzAW7-5" value="total harga obat yang di beli" style="shape=parallelogram;perimeter=parallelogramPerimeter;whiteSpace=wrap;html=1;fixedSize=1;" vertex="1" parent="1">
          <mxGeometry x="325" y="940" width="190" height="50" as="geometry" />
        </mxCell>
        <mxCell id="a_ban_CbOE6N4E2XzAW7-9" value="" style="edgeStyle=orthogonalEdgeStyle;rounded=0;orthogonalLoop=1;jettySize=auto;html=1;" edge="1" parent="1" source="EccfnYSVo-V0u7K9zvJ8-4" target="EccfnYSVo-V0u7K9zvJ8-9">
          <mxGeometry relative="1" as="geometry">
            <mxPoint x="240" y="720" as="sourcePoint" />
            <mxPoint x="240" y="800" as="targetPoint" />
          </mxGeometry>
        </mxCell>
        <mxCell id="EccfnYSVo-V0u7K9zvJ8-9" value="masukan keluhan" style="shape=parallelogram;perimeter=parallelogramPerimeter;whiteSpace=wrap;html=1;fixedSize=1;" vertex="1" parent="1">
          <mxGeometry x="175" y="760" width="130" height="60" as="geometry" />
        </mxCell>
      </root>
    </mxGraphModel>
  </diagram>
</mxfile>
